<svg xmlns="http://www.w3.org/2000/svg" 
   viewBox="0 0 512 512"
   fill="#FFFFFF"
   width="36"
   height="36">
  <path
     d="m 198.6,32.9 c -26,5.2 -42.9,30.5 -37.7,56.5 l 2.3,11.4 c 5.3,26.7 15.1,52.1 28.8,75.2 H 48 C 21.5,176 0,197.5 0,224 0,242.5 10.5,258.6 25.9,266.6 15,275.4 8,288.9 8,304 c 0,23.4 16.8,42.9 38.9,47.1 -4.4,7.3 -6.9,15.8 -6.9,24.9 0,21.3 13.9,39.4 33.1,45.6 -0.7,3.3 -1.1,6.8 -1.1,10.4 0,26.5 21.5,48 48,48 h 97.5 c 19,0 37.5,-5.6 53.3,-16.1 l 38.5,-25.7 C 336,420.4 352,390.4 352,358.3 V 320 272 247.1 c 0,-29.2 -13.3,-56.7 -36,-75 l -7.4,-5.9 C 282.1,145 264,115.2 257.4,82 L 255.1,70.6 C 249.9,44.6 224.6,27.7 198.6,32.9 Z M 480,192 h -64 c -17.7,0 -32,14.3 -32,32 v 224 c 0,17.7 14.3,32 32,32 h 64 c 17.7,0 32,-14.3 32,-32 V 224 c 0,-17.7 -14.3,-32 -32,-32 z" />
</svg>
